# xmcd
#
# Track frame offsets:
# 150
# 16857
# 31607
# 46000
# 62145
# 75045
# 90050
# 104437
# 119422
# 135207
#
# Disc length: 1998 seconds
#
#
# Revision: 1
# Processed by: cddbd v1.5.2PL0 Copyright (c) Steve Scherf et al.
# Submitted via: FreeRIP 2.951 
#
DISCID=5c07cc0a
DTITLE=Lidia Avila - Lidia Avila
DYEAR=2004
DGENRE=Country
TTITLE0=Lidia Avila - No me cansaré
TTITLE1=Lidia Avila - Ven
TTITLE2=Lidia Avila - Para que
TTITLE3=Lidia Avila - Te lo juro
TTITLE4=Lidia Avila - Tu no me amabas
TTITLE5=Lidia Avila - Para que por si regresas
TTITLE6=Lidia Avila - Dimelo ( dueto con Julio Preciado )
TTITLE7=Lidia Avila - Tú eres el amor
TTITLE8=Lidia Avila - Secretos
TTITLE9=Lidia Avila - Sigo esperando
EXTD=YEAR: 2004
EXTT0=
EXTT1=
EXTT2=
EXTT3=
EXTT4=
EXTT5=
EXTT6=
EXTT7=
EXTT8=
EXTT9=
PLAYORDER=
